<svg version="1.1" id="Layer_1" xmlns="http://www.w3.org/2000/svg" xmlns:xlink="http://www.w3.org/1999/xlink" x="0px" y="0px"
	 width="100%" viewBox="0 0 155 130" enable-background="new 0 0 155 130" xml:space="preserve">
<path fill="#000000" opacity="1.000000" stroke="none" 
	d="
M94.000000,131.000000 
	C62.693733,131.000000 31.887468,131.000000 1.040601,131.000000 
	C1.040601,87.731804 1.040601,44.463566 1.040601,1.097662 
	C52.556038,1.097662 104.112328,1.097662 155.834305,1.097662 
	C155.834305,44.332825 155.834305,87.666351 155.834305,131.000000 
	C135.463974,131.000000 114.981987,131.000000 94.000000,131.000000 
M127.966850,86.222153 
	C128.646484,83.269691 129.787613,80.336601 129.912567,77.360847 
	C130.198944,70.540718 130.124023,63.695000 129.882538,56.870754 
	C129.825241,55.251045 128.534988,53.674953 127.811867,52.078804 
	C126.266998,53.164742 123.577255,54.069622 123.372025,55.367420 
	C122.393158,61.557087 121.632927,67.860123 121.723831,74.109314 
	C121.774757,77.609665 121.878540,80.616959 118.799011,82.956535 
	C119.454002,81.399719 120.109001,79.842903 120.814613,78.165764 
	C119.548447,74.276367 116.213448,73.905220 114.215034,76.594063 
	C109.776787,82.565689 103.581772,85.684723 97.367088,88.929741 
	C84.634186,95.578270 80.596603,105.616196 82.571365,119.673492 
	C88.985832,119.673492 95.390404,119.673492 101.872658,119.673492 
	C101.436470,112.203247 107.155312,108.877327 111.557396,105.338135 
	C118.088928,100.086906 123.534546,94.183708 127.966850,86.222153 
M26.008430,77.294571 
	C26.392952,79.681030 26.370001,82.227600 27.233736,84.425758 
	C30.661566,93.149414 36.781910,99.881454 44.155037,105.405487 
	C49.230133,109.207817 53.608398,113.288071 54.399178,119.723083 
	C61.075825,119.723083 67.344124,119.723083 73.841919,119.723083 
	C74.539291,106.778038 72.323997,95.826637 59.324005,89.569740 
	C53.897549,86.957993 49.157581,82.928040 44.076435,79.587082 
	C41.742752,78.052643 39.339077,76.624657 36.967140,75.148392 
	C36.482979,77.688232 35.998821,80.228073 35.378220,83.483665 
	C34.846905,81.162712 34.114140,79.277885 34.038380,77.367004 
	C33.860313,72.875946 34.241867,68.354706 33.918865,63.880199 
	C33.702576,60.883980 33.011677,57.800785 31.846258,55.047234 
	C31.292416,53.738667 29.134478,53.109024 27.703213,52.171825 
	C27.137505,53.563335 26.119135,54.943256 26.083176,56.348324 
	C25.912720,63.008621 26.010336,69.675781 26.008430,77.294571 
M110.980621,48.467709 
	C111.875870,62.859810 107.006233,75.152122 96.186966,86.630058 
	C105.387291,82.861839 111.146393,77.631340 113.955620,69.574936 
	C118.693222,55.988277 116.550140,41.858891 116.790947,27.934464 
	C116.807404,26.983158 114.942375,25.317900 113.770882,25.132715 
	C101.860855,23.250015 90.341675,20.392708 80.068329,13.664406 
	C79.086739,13.021531 76.959366,12.954957 76.026367,13.591628 
	C66.160210,20.324171 54.845749,22.990234 43.400650,24.788197 
	C39.317093,25.429703 38.928478,26.984283 39.042374,30.178547 
	C39.419128,40.744827 39.297344,51.344704 40.101837,61.875546 
	C40.938705,72.830185 46.983227,80.635910 57.626377,86.311531 
	C56.805485,84.402641 56.490910,83.380417 55.960297,82.486412 
	C53.339268,78.070396 50.194077,73.899132 48.096256,69.252182 
	C43.097191,58.178574 45.566650,46.283642 44.949993,34.720024 
	C44.782928,31.587206 46.136486,30.745790 48.902557,29.888378 
	C57.659397,27.173986 66.242676,23.903673 74.970131,21.087130 
	C76.744225,20.514593 79.011116,20.491964 80.783478,21.055973 
	C89.676323,23.885895 98.454155,27.075769 107.332855,29.952568 
	C109.742134,30.733202 111.249298,31.514591 111.058037,34.491783 
	C110.780983,38.804352 110.982910,43.147690 110.980621,48.467709 
M67.541275,42.017059 
	C66.478027,42.062771 65.023674,41.675797 64.415764,42.225273 
	C60.797878,45.495392 57.586079,49.239513 53.821774,52.315159 
	C50.759094,54.817551 51.501579,56.858295 53.640755,59.085316 
	C56.751869,62.324188 59.851875,65.603516 63.264957,68.502594 
	C64.171829,69.272881 66.205276,68.716866 67.721474,68.769806 
	C67.713966,67.237976 68.335777,65.198929 67.584389,64.266655 
	C65.032448,61.100380 61.995361,58.325130 59.124214,55.380684 
	C61.937759,52.559139 64.820663,49.993744 67.250145,47.053669 
	C68.092033,46.034840 67.808929,44.086391 67.541275,42.017059 
M88.927513,63.590855 
	C87.099770,65.150978 85.975021,66.630531 88.295609,68.865540 
	C90.684860,71.166679 92.032204,69.519295 93.593048,67.951279 
	C96.624252,64.906143 99.941048,62.092907 102.589905,58.748299 
	C103.503815,57.594334 103.566391,54.526337 102.672760,53.397404 
	C98.999001,48.756290 94.807480,44.525021 90.806175,40.142757 
	C88.493568,41.988335 87.246933,42.983215 85.862167,44.088326 
	C87.429810,45.790405 88.395935,46.907558 89.432983,47.954464 
	C96.970406,55.563595 96.974922,55.559120 88.927513,63.590855 
z"/>
<path fill="#EDE8DF" opacity="1.000000" stroke="none" 
	d="
M127.775620,86.568405 
	C123.534546,94.183708 118.088928,100.086906 111.557396,105.338135 
	C107.155312,108.877327 101.436470,112.203247 101.872658,119.673492 
	C95.390404,119.673492 88.985832,119.673492 82.571365,119.673492 
	C80.596603,105.616196 84.634186,95.578270 97.367088,88.929741 
	C103.581772,85.684723 109.776787,82.565689 114.215034,76.594063 
	C116.213448,73.905220 119.548447,74.276367 120.814613,78.165764 
	C120.109001,79.842903 119.454002,81.399719 118.799011,82.956535 
	C121.878540,80.616959 121.774757,77.609665 121.723831,74.109314 
	C121.632927,67.860123 122.393158,61.557087 123.372025,55.367420 
	C123.577255,54.069622 126.266998,53.164742 127.811874,52.078804 
	C128.534988,53.674953 129.825241,55.251045 129.882538,56.870754 
	C130.124023,63.695000 130.198944,70.540718 129.912567,77.360847 
	C129.787613,80.336601 128.646484,83.269691 127.775620,86.568405 
M119.011223,84.370186 
	C117.953094,85.021164 116.894958,85.672150 115.836830,86.323128 
	C116.275078,86.896950 116.713326,87.470772 117.151566,88.044594 
	C117.753563,87.114288 118.355553,86.183983 119.011223,84.370186 
M109.217354,95.167877 
	C109.145370,94.815742 109.073387,94.463600 109.001404,94.111465 
	C108.753998,94.184525 108.286972,94.301613 108.291489,94.324165 
	C108.389442,94.812798 108.539986,95.290878 109.217354,95.167877 
z"/>
<path fill="#EDE8DF" opacity="1.000000" stroke="none" 
	d="
M26.010445,76.817535 
	C26.010336,69.675781 25.912720,63.008621 26.083176,56.348324 
	C26.119135,54.943256 27.137505,53.563335 27.703213,52.171825 
	C29.134478,53.109024 31.292416,53.738667 31.846258,55.047234 
	C33.011677,57.800785 33.702576,60.883980 33.918865,63.880199 
	C34.241867,68.354706 33.860313,72.875946 34.038380,77.367004 
	C34.114140,79.277885 34.846905,81.162712 35.378220,83.483665 
	C35.998821,80.228073 36.482979,77.688232 36.967140,75.148392 
	C39.339077,76.624657 41.742752,78.052643 44.076435,79.587082 
	C49.157581,82.928040 53.897549,86.957993 59.324005,89.569740 
	C72.323997,95.826637 74.539291,106.778038 73.841919,119.723083 
	C67.344124,119.723083 61.075825,119.723083 54.399178,119.723083 
	C53.608398,113.288071 49.230133,109.207817 44.155037,105.405487 
	C36.781910,99.881454 30.661566,93.149414 27.233736,84.425758 
	C26.370001,82.227600 26.392952,79.681030 26.010445,76.817535 
M39.980572,88.991623 
	C42.039227,91.023384 44.097881,93.055138 46.156536,95.086899 
	C46.604645,94.553734 47.052753,94.020569 47.500862,93.487404 
	C44.943291,91.716621 42.385715,89.945839 39.980572,88.991623 
M38.001976,86.555489 
	C38.649052,86.299187 39.296127,86.042885 39.943203,85.786583 
	C38.930885,84.820549 37.918568,83.854515 36.906250,82.888481 
	C36.707512,83.058403 36.508778,83.228333 36.310043,83.398262 
	C36.664089,84.241936 37.018131,85.085617 38.001976,86.555489 
z"/>
<path fill="#EAE6DE" opacity="1.000000" stroke="none" 
	d="
M110.980576,47.972809 
	C110.982910,43.147690 110.780983,38.804352 111.058037,34.491783 
	C111.249298,31.514591 109.742134,30.733202 107.332855,29.952568 
	C98.454155,27.075769 89.676323,23.885895 80.783478,21.055973 
	C79.011116,20.491964 76.744225,20.514593 74.970131,21.087130 
	C66.242676,23.903673 57.659397,27.173986 48.902557,29.888378 
	C46.136486,30.745790 44.782928,31.587206 44.949993,34.720024 
	C45.566650,46.283642 43.097191,58.178574 48.096256,69.252182 
	C50.194077,73.899132 53.339268,78.070396 55.960297,82.486412 
	C56.490910,83.380417 56.805485,84.402641 57.626377,86.311531 
	C46.983227,80.635910 40.938705,72.830185 40.101837,61.875546 
	C39.297344,51.344704 39.419128,40.744827 39.042374,30.178547 
	C38.928478,26.984283 39.317093,25.429703 43.400650,24.788197 
	C54.845749,22.990234 66.160210,20.324171 76.026367,13.591628 
	C76.959366,12.954957 79.086739,13.021531 80.068329,13.664406 
	C90.341675,20.392708 101.860855,23.250015 113.770882,25.132715 
	C114.942375,25.317900 116.807404,26.983158 116.790947,27.934464 
	C116.550140,41.858891 118.693222,55.988277 113.955620,69.574936 
	C111.146393,77.631340 105.387291,82.861839 96.186966,86.630058 
	C107.006233,75.152122 111.875870,62.859810 110.980576,47.972809 
z"/>
<path fill="#EBE6DF" opacity="1.000000" stroke="none" 
	d="
M67.790482,42.289803 
	C67.808929,44.086391 68.092033,46.034840 67.250145,47.053669 
	C64.820663,49.993744 61.937759,52.559139 59.124214,55.380684 
	C61.995361,58.325130 65.032448,61.100380 67.584389,64.266655 
	C68.335777,65.198929 67.713966,67.237976 67.721474,68.769806 
	C66.205276,68.716866 64.171829,69.272881 63.264957,68.502594 
	C59.851875,65.603516 56.751869,62.324188 53.640755,59.085316 
	C51.501579,56.858295 50.759094,54.817551 53.821774,52.315159 
	C57.586079,49.239513 60.797878,45.495392 64.415764,42.225273 
	C65.023674,41.675797 66.478027,42.062771 67.790482,42.289803 
z"/>
<path fill="#EBE7DF" opacity="1.000000" stroke="none" 
	d="
M89.171539,63.316685 
	C96.974922,55.559120 96.970406,55.563595 89.432983,47.954464 
	C88.395935,46.907558 87.429810,45.790405 85.862167,44.088326 
	C87.246933,42.983215 88.493568,41.988335 90.806175,40.142757 
	C94.807480,44.525021 98.999001,48.756290 102.672760,53.397404 
	C103.566391,54.526337 103.503815,57.594334 102.589905,58.748299 
	C99.941048,62.092907 96.624252,64.906143 93.593048,67.951279 
	C92.032204,69.519295 90.684860,71.166679 88.295609,68.865540 
	C85.975021,66.630531 87.099770,65.150978 89.171539,63.316685 
z"/>
<path fill="#000000" opacity="1.000000" stroke="none" 
	d="
M118.984390,84.811935 
	C118.355553,86.183983 117.753563,87.114288 117.151566,88.044594 
	C116.713326,87.470772 116.275078,86.896950 115.836830,86.323128 
	C116.894958,85.672150 117.953094,85.021164 118.984390,84.811935 
z"/>
<path fill="#000000" opacity="1.000000" stroke="none" 
	d="
M108.948868,95.469437 
	C108.539986,95.290878 108.389442,94.812798 108.291489,94.324165 
	C108.286972,94.301613 108.753998,94.184525 109.001404,94.111465 
	C109.073387,94.463600 109.145370,94.815742 108.948868,95.469437 
z"/>
<path fill="#000000" opacity="1.000000" stroke="none" 
	d="
M39.904358,88.583344 
	C42.385715,89.945839 44.943291,91.716621 47.500862,93.487404 
	C47.052753,94.020569 46.604645,94.553734 46.156536,95.086899 
	C44.097881,93.055138 42.039227,91.023384 39.904358,88.583344 
z"/>
<path fill="#000000" opacity="1.000000" stroke="none" 
	d="
M37.687077,86.242386 
	C37.018131,85.085617 36.664089,84.241936 36.310043,83.398262 
	C36.508778,83.228333 36.707512,83.058403 36.906250,82.888481 
	C37.918568,83.854515 38.930885,84.820549 39.943203,85.786583 
	C39.296127,86.042885 38.649052,86.299187 37.687077,86.242386 
z"/>
</svg>
